<?xml version="1.0" encoding="UTF-8" standalone="no"?>
<svg
   viewBox="0 0 58.367695 60.480606"
   version="1.1"
   id="svg69"
   sodipodi:docname="2161597.svg"
   width="58.367695"
   height="60.480606"
   inkscape:version="1.4 (e7c3feb1, 2024-10-09)"
   xmlns:inkscape="http://www.inkscape.org/namespaces/inkscape"
   xmlns:sodipodi="http://sodipodi.sourceforge.net/DTD/sodipodi-0.dtd"
   xmlns="http://www.w3.org/2000/svg"
   xmlns:svg="http://www.w3.org/2000/svg">
  <defs
     id="defs69" />
  <sodipodi:namedview
     id="namedview69"
     pagecolor="#505050"
     bordercolor="#eeeeee"
     borderopacity="1"
     inkscape:showpageshadow="0"
     inkscape:pageopacity="0"
     inkscape:pagecheckerboard="0"
     inkscape:deskcolor="#505050"
     inkscape:zoom="1.5114151"
     inkscape:cx="104.20698"
     inkscape:cy="54.915422"
     inkscape:window-width="1440"
     inkscape:window-height="847"
     inkscape:window-x="0"
     inkscape:window-y="25"
     inkscape:window-maximized="1"
     inkscape:current-layer="svg69" />
  <path
     d="m 4.5702952,39.621435 q 1.16,1.95 -0.48,1.65 a 1,0.99 88.2 0 1 -0.8,-0.76 l -0.66,-2.9 q -0.62,-2.71 -1.25,0 -0.76,3.3 2.7,4.62 a 0.97,0.93 46.3 0 0 0.64,0.03 q 2.32,-0.69 0.56,-2.93 c -0.01,-8.14 3,-12.48 9.0399998,-18.04 a 0.96,0.94 74.8 0 0 0.29,-0.52 c 0.6,-2.63 2.12,-4.5 2.81,-7.08 1.66,-6.1300004 7.18,-11.9900004 14.15,-11.0500004 3.08,0.42 7.74,0.47 10.5,1.72 q 0.72,0.32 1.43,0.68 a 1,1 0 0 0 1.41,-0.6 q 0.26,-0.85 0.43,-1.71 c 0.51,-2.63999999 2.3,-3.58999999 4.66,-1.84999999 q 6.62,4.87999999 8.15,12.99000039 c 1.22,6.47 -2.9,8.01 -7.23,10.88 a 1,0.99 69.8 0 0 -0.44,0.96 c 0.54,4.02 -2.09,8.28 -6.71,6.4 a 0.42,0.43 34.5 0 0 -0.45,0.09 l -0.19,0.19 a 0.25,0.2 40.6 0 0 0.06,0.33 q 3.56,2.84 5.91,6.83 1.5,2.55 -0.89,3.74 l -4.14,2.06 q -2.54,1.27 -2.52,3.47 c 0.06,6.22 -5.5,4.64 -8.78,2.56 q -1.64,-1.04 -2.09,-2.49 a 1,1.01 68.9 0 0 -1.38,-0.61 l -0.27,0.12 a 1,1.01 71.4 0 0 -0.56,1.11 l 1.45,7.27 a 0.99,0.98 69.9 0 1 -0.49,1.07 c -1.67,0.92 -7.41,3.63 -9.07,2.24 q -0.71,-0.6 -1.29,-1.88 a 1,1 0 0 0 -1.15,-0.56 q -4.71,1.15 -8.1699998,-2.37 a 1,1.02 28.4 0 1 -0.26,-0.91 l 0.8899998,-4.23 a 0.98,0.98 0 0 0 -0.12,-0.71 l -3.6199998,-6.09 a 0.64,0.65 56.6 0 0 -0.94,-0.19 l -0.24,0.19 a 0.98,0.98 0 0 1 -0.94,0.14 q -7,-2.55 -3.16,-8.4 a 1,1 0 0 1 1.68,0.01 l 1.3,2.02 a 1.02,1.02 0 0 1 -0.02,1.11 q -0.46,0.66 0.25,1.4 z M 46.920295,2.1414346 q -0.37,2.09 -1.78,3.95 l 1.34,4.4900004 q 0.83,2.8 -0.6,0.25 l -0.31,-0.54 q -0.52,-1.4700004 -2,-1.4200004 -3.76,0.11 -1.71,-1.54 a 1,1 0 0 0 -0.1,-1.63 q -1.41,-0.86 -3.07,-0.95 c -6.31,-0.34 -12.05,-3.03 -16.48,3.21 q -3.27,2.7600004 -3.26,7.0500004 -5.04,8.4 -4.71,18.52 a 1.06,0.99 27.6 0 0 0.2,0.57 q 1.85,2.43 4.88,3.02 l 0.96,0.21 q 0.69,5.68 6,3.29 a 1.03,0.98 3.8 0 0 0.43,-0.36 c 1.46,-2.21 2.75,-4.29 4.48,-6.35 2.28,-2.74 -2.79,-8.25 -4.99,-11.78 q -0.12,-0.19 -0.15,-0.42 l -0.06,-0.56 q -0.04,-0.34 0.28,-0.03 4.78,4.66 6.96,10.96 a 1.01,0.98 55.6 0 1 -0.17,0.97 q -2.39,2.85 -4.39,5.95 c -2.57,4.02 -7.14,5.33 -9.4,-0.12 a 0.93,1 0.7 0 0 -0.46,-0.51 l -4.32,-2.21 a 1.03,1 88.5 0 1 -0.42,-0.41 q -1.28,-2.3 -1.04,-4.92 l 0.53,-4.48 q 0.34,-2.81 -1.69,-0.83 -7.2299998,7.07 -3.6299998,17.7 3.2299998,6.66 10.2599998,9.75 a 1.01,1.03 87.1 0 1 0.44,0.39 q 1.4,2.22 1.69,4.85 a 1.01,1 84.2 0 0 1.09,0.89 q 3.45,-0.34 6.26,-2.27 a 1,1 0 0 0 0.34,-1.24 q -0.93,-2.04 -0.73,-4.28 a 0.98,0.98 0 0 0 -0.17,-0.64 l -1,-1.5 a 1.01,1 66.5 0 1 0.6,-1.54 q 3.29,-0.76 6.07,-3.3 0.68,-0.62 0.91,0.06 a 0.79,0.81 49.7 0 1 -0.06,0.64 l -1.87,3.41 a 1,1 0 0 0 0.47,1.39 l 3.78,1.71 c 3.72,2.33 4.85,-5.25 5.75,-7.5 h 1 q 2.45,-0.18 4.68,-2.32 a 0.99,0.99 0 0 0 0.22,-1.14 q -1.7,-3.66 -4.84,-6.1 -0.44,-0.52 -1.52,-0.9 l -0.56,-2.07 a 0.8,0.8 0 0 1 0.67,-1.01 q 0.27,-0.03 0.6,0.04 7.55,2.58 6.85,-4.91 a 0.31,0.32 89 0 0 -0.31,-0.29 l -0.3,-0.02 a 0.41,0.41 0 0 0 -0.42,0.52 q 0.62,2.12 -0.94,3.71 a 1.01,1 37.4 0 1 -1.23,0.16 l -0.9,-0.54 a 0.99,1.01 21 0 1 -0.46,-1.07 q 0.23,-1.07 -0.54,-1.81 l -0.22,-1.3 q 11.72,-0.2 12.32,-9.71 c 0.34,-5.27 -2.41,-8.2000004 -5.68,-12.1200004 q -1.84,-2.18999999 -3.57,-1.02 z m -31.42,50.2200004 q -1.32,-0.97 -2.64,-1.74 a 0.99,0.99 0 0 0 -1.42,0.48 q -1.9999998,4.81 3.6,5.32 1.34,0.12 2.67,-0.19 1.9,-0.43 0.44,-1.72 -1.39,-1.23 -2.65,-2.15 z"
     id="path48" />
  <path
     fill="#f7f70c"
     d="m 43.850295,24.991435 c -0.53,0.02 -2.55,-1.51 -2.6,-0.14 a 0.64,0.63 0 0 0 0.67,0.66 q 1.2,-0.06 2.15,0.78 0.77,0.74 0.54,1.81 a 0.99,1.01 21 0 0 0.46,1.07 l 0.9,0.54 a 1.01,1 37.4 0 0 1.23,-0.16 q 1.56,-1.59 0.94,-3.71 a 0.41,0.41 0 0 1 0.42,-0.52 l 0.3,0.02 a 0.31,0.32 89 0 1 0.31,0.29 q 0.7,7.49 -6.85,4.91 -1.81,-0.56 -3.5,-0.16 -2.57,0.61 -0.24,1.86 l 0.35,0.18 a 1.03,1.01 10.1 0 1 0.51,0.72 c 0.42,2.54 0.96,4.81 0.5,7.43 -0.4,2.29 0,4.46 -1.56,6.61 -1.15,1.58 -1.47,2.67 -2.06,4.36 l -3.78,-1.71 a 1,1 0 0 1 -0.47,-1.39 l 1.87,-3.41 a 0.79,0.81 49.7 0 0 0.06,-0.64 q -0.23,-0.68 -0.91,-0.06 -2.78,2.54 -6.07,3.3 a 1.01,1 66.5 0 0 -0.6,1.54 l 1,1.5 a 0.98,0.98 0 0 1 0.17,0.64 q -0.2,2.24 0.73,4.28 a 1,1 0 0 1 -0.34,1.24 q -2.81,1.93 -6.26,2.27 a 1.01,1 84.2 0 1 -1.09,-0.89 q -0.29,-2.63 -1.69,-4.85 a 1.01,1.03 87.1 0 0 -0.44,-0.39 q -7.03,-3.09 -10.2599998,-9.75 1.51,-2.03 1.1,-5.62 -0.44,-3.97 3.6899998,-6.77 -0.24,2.62 1.04,4.92 a 1.03,1 88.5 0 0 0.42,0.41 l 4.32,2.21 a 0.93,1 0.7 0 1 0.46,0.51 c 2.26,5.45 6.83,4.14 9.4,0.12 q 2,-3.1 4.39,-5.95 a 1.01,0.98 55.6 0 0 0.17,-0.97 q -2.18,-6.3 -6.96,-10.96 -0.32,-0.31 -0.28,0.03 l 0.06,0.56 q 0.03,0.23 0.15,0.42 c 2.2,3.53 7.27,9.04 4.99,11.78 -1.73,2.06 -3.02,4.14 -4.48,6.35 a 1.03,0.98 3.8 0 1 -0.43,0.36 q -5.31,2.39 -6,-3.29 0.85,-1.81 -0.36,-3.3 c -5,2.1 -2.21,-9.16 -1.6,-10.99 q 2.44,-2.84 3,-6.5 l 0.21,-2.46 q 3.19,-2.83 0.68,-6.1200004 c 4.43,-6.24 10.17,-3.55 16.48,-3.21 q 1.66,0.09 3.07,0.95 a 1,1 0 0 1 0.1,1.63 q -2.05,1.65 1.71,1.54 l 0.04,1.2100004 q -0.44,0.47 -0.73,1 -1.41,2.57 0.95,0.82 0.66,-0.49 1.03,-1.32 l 0.71,-0.29 0.31,0.54 q 1.43,2.55 0.6,-0.25 l -1.34,-4.4900004 c 4,1.61 2.68,-2.4 1.78,-3.95 q 1.73,-1.16999999 3.57,1.02 c 3.27,3.92 6.02,6.8500004 5.68,12.1200004 q -0.6,9.51 -12.32,9.71 z m -14.53,-12.54 q -0.79,1.26 -0.31,2.67 0.58,1.73 0.79,-0.08 l 0.27,-2.33 q 0.21,-1.8 -0.75,-0.26 z m 6.84,0.83 a 1,1 0 0 0 -1.49,0.41 l -0.95,2.16 q -0.94,2.11 0.95,0.78 0.13,-0.09 0.24,-0.22 a 1.03,1.02 12.9 0 1 0.56,-0.35 q 3.6,-0.76 0.69,-2.78 z m -9.72,43.17 c 1.83,-0.5 -1.07,-3.14 -0.65,-0.41 a 0.51,0.52 77.5 0 0 0.65,0.41 z"
     id="path49" />
  <path
     fill="#c9c643"
     d="m 46.920295,2.1414346 c 0.9,1.55 2.22,5.56 -1.78,3.95 q 1.41,-1.86 1.78,-3.95 z"
     id="path50" />
  <path
     fill="#fbfcc2"
     d="m 22.210295,7.9614346 q 2.51,3.2900004 -0.68,6.1200004 -0.84,0.67 -2.58,0.93 -0.01,-4.29 3.26,-7.0500004 z"
     id="path51" />
  <path
     fill="#c9c643"
     d="m 43.570295,8.8714346 q 1.48,-0.05 2,1.4200004 l -0.71,0.29 q -0.32,-0.8300004 -1.25,-0.5 z"
     id="path52" />
  <path
     fill="#434e0b"
     d="m 16.450295,10.091435 c -1.69,7.31 -2.65,-1.2100004 -0.49,-0.7700004 a 0.63,0.64 12.3 0 1 0.49,0.7700004 z m 27.16,-0.01 q 0.93,-0.3300004 1.25,0.5 -0.37,0.83 -1.03,1.32 -2.36,1.75 -0.95,-0.82 0.29,-0.53 0.73,-1 z"
     id="path53" />
  <path
     fill="#c9c643"
     d="m 29.320295,12.451435 q 0.96,-1.54 0.75,0.26 l -0.27,2.33 q -0.21,1.81 -0.79,0.08 -0.48,-1.41 0.31,-2.67 z"
     id="path54" />
  <path
     d="m 36.160295,13.281435 q 2.91,2.02 -0.69,2.78 a 1.03,1.02 12.9 0 0 -0.56,0.35 q -0.11,0.13 -0.24,0.22 -1.89,1.33 -0.95,-0.78 l 0.95,-2.16 a 1,1 0 0 1 1.49,-0.41 z"
     id="path55" />
  <path
     fill="#fbf984"
     d="m 21.530295,14.081435 -0.21,2.46 q -3.5,2.17 -3,6.5 c -0.61,1.83 -3.4,13.09 1.6,10.99 l -0.6,3.09 q -3.03,-0.59 -4.88,-3.02 a 1.06,0.99 27.6 0 1 -0.2,-0.57 q -0.33,-10.12 4.71,-18.52 1.74,-0.26 2.58,-0.93 z"
     id="path56" />
  <path
     fill="#434e0b"
     d="m 21.320295,16.541435 q -0.56,3.66 -3,6.5 -0.5,-4.33 3,-6.5 z"
     id="path57" />
  <path
     fill="#fbfcc2"
     d="m 13.030295,30.831435 q -4.1299998,2.8 -3.6899998,6.77 0.41,3.59 -1.1,5.62 -3.6,-10.63 3.6299998,-17.7 2.03,-1.98 1.69,0.83 z"
     id="path58" />
  <path
     fill="#d0d213"
     d="m 43.850295,24.991435 0.22,1.3 q -0.95,-0.84 -2.15,-0.78 a 0.64,0.63 0 0 1 -0.67,-0.66 c 0.05,-1.37 2.07,0.16 2.6,0.14 z m -1.53,5.55 q -0.33,-0.07 -0.6,-0.04 a 0.8,0.8 0 0 0 -0.67,1.01 l 0.56,2.07 q 1.18,5.19 0.46,10.46 c -0.9,2.25 -2.03,9.83 -5.75,7.5 0.59,-1.69 0.91,-2.78 2.06,-4.36 1.56,-2.15 1.16,-4.32 1.56,-6.61 0.46,-2.62 -0.08,-4.89 -0.5,-7.43 a 1.03,1.01 10.1 0 0 -0.51,-0.72 l -0.35,-0.18 q -2.33,-1.25 0.24,-1.86 1.69,-0.4 3.5,0.16 z"
     id="path59" />
  <path
     fill="#434e0b"
     d="m 41.610295,33.581435 q 1.08,0.38 1.52,0.9 0.72,4.89 -0.06,9.56 h -1 q 0.72,-5.27 -0.46,-10.46 z"
     id="path61" />
  <path
     fill="#434e0b"
     d="m 20.280295,37.331435 -0.96,-0.21 0.6,-3.09 q 1.21,1.49 0.36,3.3 z"
     id="path63" />
  <path
     fill="#c9c643"
     d="m 43.130295,34.481435 q 3.14,2.44 4.84,6.1 a 0.99,0.99 0 0 1 -0.22,1.14 q -2.23,2.14 -4.68,2.32 0.78,-4.67 0.06,-9.56 z"
     id="path65" />
  <path
     fill="#fbfcc2"
     d="m 4.5702952,39.621435 0.71,-0.29 q 1.76,2.24 -0.56,2.93 a 0.97,0.93 46.3 0 1 -0.64,-0.03 q -3.46,-1.32 -2.7,-4.62 0.63,-2.71 1.25,0 l 0.66,2.9 a 1,0.99 88.2 0 0 0.8,0.76 q 1.64,0.3 0.48,-1.65 z"
     id="path66" />
  <path
     fill="#f3f335"
     d="m 15.500295,52.361435 q 1.26,0.92 2.65,2.15 1.46,1.29 -0.44,1.72 -1.33,0.31 -2.67,0.19 -5.5999998,-0.51 -3.6,-5.32 a 0.99,0.99 0 0 1 1.42,-0.48 q 1.32,0.77 2.64,1.74 z"
     id="path68" />
  <path
     fill="#c9c643"
     d="m 25.790295,56.041435 c -0.42,-2.73 2.48,-0.09 0.65,0.41 a 0.51,0.52 77.5 0 1 -0.65,-0.41 z"
     id="path69" />
</svg>
